# xmcd CD database file
#
# Track frame offsets:
#	150
#	15784
#	40605
#	58505
#	73390
#	93567
#	106080
#	125952
#	144992
#	163020
#
# Disc length: 2532 seconds
#
# Revision: 1
# Processed by: cddbd v1.4PL0 Copyright (c) Steve Scherf et al.
# Submitted via: CDex 1.50
#
DISCID=8209e20a
DTITLE=Victor Feldman - The Arrival Of Victor Feldman
DYEAR=1958
DGENRE=Jazz
TTITLE0=Serpent's Tooth
TTITLE1=Waltz
TTITLE2=Chasing Shadows
TTITLE3=Flamingo
TTITLE4=S'posin'
TTITLE5=Bebop
TTITLE6=There Is No Greater Love
TTITLE7=Too Blue
TTITLE8=Minor Lament
TTITLE9=Satin Doll
EXTD=YEAR: 1958
EXTT0=
EXTT1=
EXTT2=
EXTT3=
EXTT4=
EXTT5=
EXTT6=
EXTT7=
EXTT8=
EXTT9=
PLAYORDER=
